<svg width="42" height="42" viewBox="0 0 42 42" fill="none" xmlns="http://www.w3.org/2000/svg">
<path d="M21 38.3906C11.4187 38.3906 3.60938 30.5813 3.60938 21C3.60938 11.4187 11.4187 3.60938 21 3.60938C30.5813 3.60938 38.3906 11.4187 38.3906 21C38.3906 30.5813 30.5813 38.3906 21 38.3906ZM21 5.57812C12.5016 5.57812 5.57812 12.5016 5.57812 21C5.57812 29.4984 12.5016 36.4219 21 36.4219C29.4984 36.4219 36.4219 29.4984 36.4219 21C36.4219 12.5016 29.4984 5.57812 21 5.57812Z" fill="#383D3B"/>
<path d="M28.3828 17.0625H13.6172C13.0594 17.0625 12.6328 16.6359 12.6328 16.0781C12.6328 15.5203 13.0594 15.0938 13.6172 15.0938H28.3828C28.9406 15.0938 29.3672 15.5203 29.3672 16.0781C29.3672 16.6359 28.9406 17.0625 28.3828 17.0625ZM28.3828 21.9844H13.6172C13.0594 21.9844 12.6328 21.5578 12.6328 21C12.6328 20.4422 13.0594 20.0156 13.6172 20.0156H28.3828C28.9406 20.0156 29.3672 20.4422 29.3672 21C29.3672 21.5578 28.9406 21.9844 28.3828 21.9844Z" fill="#383D3B"/>
<path d="M28.3828 26.9062H13.6172C13.0594 26.9062 12.6328 26.4797 12.6328 25.9219C12.6328 25.3641 13.0594 24.9375 13.6172 24.9375H28.3828C28.9406 24.9375 29.3672 25.3641 29.3672 25.9219C29.3672 26.4797 28.9406 26.9062 28.3828 26.9062Z" fill="#383D3B"/>
</svg>
